<svg width="20" height="20" viewBox="0 0 20 20" fill="none" xmlns="http://www.w3.org/2000/svg">
<path d="M2 15.0016V5H5.75059C6.41374 5 7.04973 5.26343 7.51864 5.73235C7.98756 6.20126 8.25099 6.83725 8.25099 7.5004C8.25099 8.16354 7.98756 8.79953 7.51864 9.26844C7.04973 9.73736 6.41374 10.0008 5.75059 10.0008C6.41374 10.0008 7.04973 10.2642 7.51864 10.7331C7.98756 11.2021 8.25099 11.838 8.25099 12.5012C8.25099 13.1643 7.98756 13.8003 7.51864 14.2692C7.04973 14.7382 6.41374 15.0016 5.75059 15.0016H2Z" stroke="black" stroke-linecap="round" stroke-linejoin="round"/>
<path d="M2 10.001H5.75059" stroke="black" stroke-linecap="round" stroke-linejoin="round"/>
<path d="M11.168 10.8341H17.0022C17.0022 10.0604 16.6949 9.31847 16.1478 8.7714C15.6008 8.22433 14.8588 7.91699 14.0851 7.91699C13.3114 7.91699 12.5694 8.22433 12.0224 8.7714C11.4753 9.31847 11.168 10.0604 11.168 10.8341ZM11.168 10.8341V12.501C11.2539 13.125 11.5396 13.7044 11.9822 14.1526C12.4247 14.6008 13.0005 14.8937 13.6234 14.9875C14.2462 15.0813 14.8827 14.971 15.4377 14.673C15.9926 14.3751 16.4362 13.9055 16.7022 13.3345" stroke="black" stroke-linecap="round" stroke-linejoin="round"/>
<path d="M12.835 5H15.3354" stroke="black" stroke-linecap="round" stroke-linejoin="round"/>
</svg>
