<svg width="21" height="20" viewBox="0 0 21 20" fill="none" xmlns="http://www.w3.org/2000/svg">
<path d="M8.83325 11.6667C9.10482 11.9438 9.42896 12.164 9.78669 12.3143C10.1444 12.4647 10.5286 12.5421 10.9166 12.5421C11.3046 12.5421 11.6887 12.4647 12.0465 12.3143C12.4042 12.164 12.7284 11.9438 12.9999 11.6667L16.3333 8.33332C16.8858 7.78079 17.1962 7.03139 17.1962 6.24999C17.1962 5.46859 16.8858 4.71919 16.3333 4.16666C15.7807 3.61412 15.0313 3.30371 14.2499 3.30371C13.4685 3.30371 12.7191 3.61412 12.1666 4.16666L11.7499 4.58332" stroke="white" stroke-width="1.75" stroke-linecap="round" stroke-linejoin="round"/>
<path d="M12.1667 8.33343C11.8951 8.05627 11.5709 7.83608 11.2132 7.68576C10.8555 7.53544 10.4714 7.45801 10.0833 7.45801C9.69529 7.45801 9.31116 7.53544 8.95343 7.68576C8.5957 7.83608 8.27155 8.05627 7.99999 8.33343L4.66666 11.6668C4.11412 12.2193 3.80371 12.9687 3.80371 13.7501C3.80371 14.5315 4.11412 15.2809 4.66666 15.8334C5.21919 16.386 5.96859 16.6964 6.74999 16.6964C7.53139 16.6964 8.28079 16.386 8.83332 15.8334L9.24999 15.4168" stroke="white" stroke-width="1.75" stroke-linecap="round" stroke-linejoin="round"/>
</svg>
