<svg width="99" height="35" viewBox="0 0 99 35" fill="none" xmlns="http://www.w3.org/2000/svg">
<path d="M98.9999 6.9978L98.9861 0.767151L73.0044 0.826625C69.0913 0.869107 65.5877 2.7298 63.2409 5.61856C60.8997 2.74113 57.4098 0.880435 53.5132 0.826625L53.0543 0.809633L53.0516 0.767151L52.436 0.789808L51.8067 0.767151L51.804 0.809633L51.3863 0.826625C44.3516 0.925749 38.6359 6.89301 38.6359 14.1489V34.2739H44.6813V22.6707H60.2182V34.2739H66.2637V14.1489C66.2637 10.2802 69.3166 7.09975 73.0456 7.05727L84.9799 7.02895V34.2739H91.0253V7.01479L98.9999 6.9978ZM44.6813 16.4401V14.1461C44.6813 10.2774 47.7343 7.09692 51.488 7.05444L52.4333 7.02329L53.3428 7.05444H53.4088C57.1625 7.09692 60.2154 10.2774 60.2154 14.1461V16.4401H44.6813Z" fill="black"/>
<path d="M35.5726 8.56548C37.6954 8.21041 39.1369 6.14903 38.7924 3.96124C38.4479 1.77346 36.4478 0.287743 34.325 0.642806C32.2023 0.99787 30.7607 3.05926 31.1052 5.24704C31.4497 7.43482 33.4499 8.92054 35.5726 8.56548Z" fill="black"/>
<path d="M16.2651 6.9978C20.9008 6.9978 24.8221 10.1953 26.0697 14.5652H32.2718C30.9061 6.73158 24.2506 0.767151 16.2651 0.767151C7.29578 0.767151 0 8.28641 0 17.5304C0 26.7744 7.29578 34.2937 16.2651 34.2937C19.7962 34.2937 23.0635 33.124 25.7317 31.1444C26.0312 32.1328 26.1906 33.1835 26.1906 34.2739H32.2361C32.2361 25.0299 24.9403 17.5106 15.971 17.5106C14.8664 17.5106 13.7727 17.6267 12.7037 17.8505V24.2907C13.7534 23.9253 14.8526 23.7412 15.971 23.7412C18.3617 23.7412 20.5601 24.5937 22.305 26.0154C20.6123 27.3012 18.5239 28.0631 16.2651 28.0631C10.629 28.0631 6.04547 23.3391 6.04547 17.5304C6.04547 11.7218 10.629 6.9978 16.2651 6.9978Z" fill="black"/>
</svg>
